<svg width="182" height="182" viewBox="0 0 182 182" fill="none" xmlns="http://www.w3.org/2000/svg">
<g clip-path="url(#clip0_16_2)">
<g clip-path="url(#clip1_16_2)">
<path d="M119.539 177.409C140.346 170.537 157.975 156.388 169.187 137.561C180.398 118.734 184.44 96.4929 180.569 74.9251C176.698 53.357 165.175 33.91 148.116 20.1567C131.057 6.40327 109.608 -0.73274 87.7099 0.0595451C65.8117 0.85183 44.9345 9.51922 28.9141 24.4694C12.8937 39.4195 2.80582 59.6486 0.503756 81.4401C-1.79831 103.231 3.84005 125.122 16.383 143.089C28.926 161.057 47.5311 173.895 68.7807 179.246L74.001 158.513C57.7441 154.419 43.5099 144.598 33.914 130.851C24.3179 117.105 20.0042 100.358 21.7654 83.686C23.5267 67.0143 31.2444 51.5382 43.5011 40.1005C55.7574 28.6627 71.7294 22.0317 88.483 21.4256C105.237 20.8194 121.646 26.2789 134.697 36.801C147.748 47.3231 156.564 62.2012 159.525 78.7017C162.487 95.2025 159.395 112.218 150.817 126.622C142.24 141.025 128.752 151.85 112.834 157.108L119.539 177.409Z" fill="black"/>
<path d="M105.336 134.032C106.685 133.59 107.934 132.886 109.011 131.961C110.088 131.036 110.972 129.908 111.613 128.641C112.254 127.374 112.639 125.993 112.746 124.578C112.854 123.162 112.681 121.739 112.239 120.39C111.796 119.041 111.092 117.792 110.167 116.715C109.242 115.638 108.114 114.754 106.847 114.113C105.58 113.472 104.2 113.087 102.784 112.98C101.368 112.872 99.9451 113.045 98.5962 113.487L101.966 123.76L105.336 134.032Z" fill="black"/>
<path d="M108.588 92.3384C108.588 94.8741 109.088 97.3851 110.059 99.7277C111.029 102.07 112.451 104.199 114.244 105.992C116.037 107.785 118.166 109.207 120.508 110.177C122.851 111.148 125.362 111.647 127.897 111.647C130.433 111.647 132.944 111.148 135.287 110.177C137.629 109.207 139.758 107.785 141.551 105.992C143.344 104.199 144.766 102.07 145.736 99.7277C146.707 97.3851 147.206 94.8741 147.206 92.3384H127.897H108.588Z" fill="black"/>
<path d="M147.206 92.3381C147.206 87.3419 146.222 82.395 144.31 77.7792C142.398 73.1634 139.596 68.9694 136.063 65.4369C132.53 61.9039 128.336 59.1017 123.721 57.1899C119.105 55.2781 114.158 54.2939 109.162 54.2939C104.166 54.2939 99.2187 55.2781 94.6029 57.1899C89.9876 59.1017 85.7935 61.9039 82.2606 65.4369C78.728 68.9694 75.9258 73.1634 74.0136 77.7792C72.1019 82.395 71.1177 92.3381 71.1177 92.3381H92.8066C92.8066 90.1904 93.2295 88.0634 94.0516 86.0793C94.8736 84.0949 96.0784 82.2917 97.5971 80.773C99.1159 79.2543 100.919 78.0495 102.903 77.2279C104.887 76.4058 107.014 75.9829 109.162 75.9829C111.31 75.9829 113.436 76.4058 115.421 77.2279C117.405 78.0495 119.208 79.2543 120.727 80.773C122.246 82.2917 123.45 84.0949 124.272 86.0793C125.094 88.0634 125.517 90.1904 125.517 92.3381H147.206Z" fill="black"/>
<path d="M92.8069 92.3379C92.8069 92.3379 92.2844 101.723 92.8069 107.699C93.326 113.638 95.4476 122.734 95.4476 122.734L99.9016 140.777C99.9016 140.777 102.247 148.86 101.979 154.131C101.758 158.469 100.517 162.991 99.5605 164.987C97.7564 168.754 95.1347 172.044 91.8973 174.603C88.6602 177.163 85.5432 178.816 80.8911 179.747C76.2498 180.677 68.7808 179.246 68.7808 179.246L74.0012 158.513C74.8643 158.749 75.9264 158.937 76.8022 158.756C77.6779 158.576 78.5019 158.191 79.21 157.631C79.9181 157.071 80.4916 156.352 80.8863 155.528C81.2809 154.704 81.4863 153.797 81.4863 152.878C81.4863 152.488 80.6285 146.98 79.21 140.777C77.2923 132.391 74.6611 122.734 74.6611 122.734C74.6611 122.734 72.3521 113.649 71.6916 107.699C71.0152 101.605 71.1177 92.3381 71.1177 92.3381L92.8069 92.3379Z" fill="black"/>
<path d="M119.553 177.404C112.936 179.591 106.109 181.004 99.207 181.628C102.372 179.556 105.183 176.612 107.443 172.976C110.274 168.423 112.14 162.952 112.852 157.126L119.553 177.404Z" fill="black"/>
</g>
</g>
<defs>
<clipPath id="clip0_16_2">
<rect width="182" height="182" fill="white"/>
</clipPath>
<clipPath id="clip1_16_2">
<rect width="182" height="182" fill="white"/>
</clipPath>
</defs>
</svg>
